<svg version="1.1" viewBox="0.0 0.0 1130.4829396325458 480.23622047244095" fill="none" stroke="none" stroke-linecap="square" stroke-miterlimit="10" xmlns:xlink="http://www.w3.org/1999/xlink" xmlns="http://www.w3.org/2000/svg"><clipPath id="p.0"><path d="m0 0l1130.4829 0l0 480.2362l-1130.4829 0l0 -480.2362z" clip-rule="nonzero"/></clipPath><g clip-path="url(#p.0)"><path fill="#000000" d="m0 0l1130.4829 0l0 480.2362l-1130.4829 0z" fill-rule="evenodd"/><path fill="#cdfa05" d="m378.75003 172.86682l0 0c-44.443695 13.602737 -89.5184 -4.919281 -100.677155 -41.37007c-11.158783 -36.450798 15.824005 -77.02719 60.2677 -90.62993l0 0c-26.063507 22.002968 -37.082977 53.196354 -28.59134 80.934845c8.491638 27.738487 35.08548 47.4197 69.00079 51.065147z" fill-rule="evenodd"/><path stroke="#cdfa05" stroke-width="1.0" stroke-linejoin="round" stroke-linecap="butt" d="m378.75003 172.86682l0 0c-44.443695 13.602737 -89.5184 -4.919281 -100.677155 -41.37007c-11.158783 -36.450798 15.824005 -77.02719 60.2677 -90.62993l0 0c-26.063507 22.002968 -37.082977 53.196354 -28.59134 80.934845c8.491638 27.738487 35.08548 47.4197 69.00079 51.065147z" fill-rule="evenodd"/><path fill="#000000" fill-opacity="0.0" d="m464.35696 373.13254l457.00784 0l0 63.02362l-457.00784 0z" fill-rule="evenodd"/><path fill="#cdfa05" d="m476.66946 416.69254l0 -26.28125l8.140625 0q2.328125 0 4.09375 0.953125q1.765625 0.953125 2.734375 2.65625q0.984375 1.6875 0.984375 3.953125q0 2.65625 -1.390625 4.578125q-1.390625 1.90625 -3.765625 2.625l5.515625 11.515625l-3.828125 0l-5.03125 -11.15625l-4.21875 0l0 11.15625l-3.234375 0zm3.234375 -14.078125l4.90625 0q2.015625 0 3.234375 -1.265625q1.21875 -1.28125 1.21875 -3.375q0 -2.125 -1.21875 -3.375q-1.21875 -1.265625 -3.234375 -1.265625l-4.90625 0l0 9.28125zm18.646881 14.078125l0 -26.28125l15.125 0l0 2.953125l-11.921875 0l0 8.140625l10.65625 0l0 2.90625l-10.65625 0l0 9.328125l11.921875 0l0 2.953125l-15.125 0zm20.7406 0l0 -26.28125l4.25 0l2.734375 8.5q0.390625 1.15625 0.71875 2.296875q0.328125 1.125 0.46875 1.734375q0.1875 -0.609375 0.46875 -1.734375q0.28125 -1.140625 0.65625 -2.328125l2.578125 -8.46875l4.25 0l0 26.28125l-3.15625 0l0 -9.546875q0 -1.578125 0.09375 -3.59375q0.109375 -2.015625 0.28125 -4.125q0.1875 -2.109375 0.390625 -4.03125q0.203125 -1.921875 0.34375 -3.359375l-4.25 13.140625l-3.421875 0l-4.28125 -13.140625q0.1875 1.40625 0.359375 3.265625q0.1875 1.84375 0.328125 3.921875q0.140625 2.0625 0.25 4.125q0.109375 2.046875 0.109375 3.796875l0 9.546875l-3.171875 0zm22.459412 0l0 -26.28125l15.125 0l0 2.953125l-11.921875 0l0 8.140625l10.65625 0l0 2.90625l-10.65625 0l0 9.328125l11.921875 0l0 2.953125l-15.125 0zm20.7406 0l0 -26.28125l4.25 0l2.734375 8.5q0.390625 1.15625 0.71875 2.296875q0.328125 1.125 0.46875 1.734375q0.1875 -0.609375 0.46875 -1.734375q0.28125 -1.140625 0.65625 -2.328125l2.578125 -8.46875l4.25 0l0 26.28125l-3.15625 0l0 -9.546875q0 -1.578125 0.09375 -3.59375q0.109375 -2.015625 0.28125 -4.125q0.1875 -2.109375 0.390625 -4.03125q0.203125 -1.921875 0.34375 -3.359375l-4.25 13.140625l-3.421875 0l-4.28125 -13.140625q0.1875 1.40625 0.359375 3.265625q0.1875 1.84375 0.328125 3.921875q0.140625 2.0625 0.25 4.125q0.109375 2.046875 0.109375 3.796875l0 9.546875l-3.171875 0zm22.209412 0l0 -26.28125l7.453125 0q3.609375 0 5.640625 1.796875q2.03125 1.796875 2.03125 5.015625q0 1.796875 -0.765625 3.125q-0.75 1.328125 -2.140625 2.046875q-1.375 0.71875 -3.328125 0.6875l0 -0.53125q2.09375 -0.046875 3.625 0.78125q1.53125 0.828125 2.375 2.375q0.84375 1.546875 0.84375 3.671875q0 2.234375 -0.9375 3.890625q-0.9375 1.65625 -2.671875 2.546875q-1.71875 0.875 -4.125 0.875l-8.0 0zm3.171875 -2.921875l4.46875 0q2.265625 0 3.578125 -1.203125q1.3125 -1.203125 1.3125 -3.296875q0 -2.15625 -1.3125 -3.5q-1.3125 -1.359375 -3.578125 -1.359375l-4.46875 0l0 9.359375zm0 -12.15625l4.25 0q2.09375 0 3.296875 -1.109375q1.203125 -1.125 1.203125 -3.03125q0 -1.90625 -1.1875 -3.015625q-1.1875 -1.125 -3.28125 -1.125l-4.28125 0l0 8.28125zm18.6781 15.078125l0 -26.28125l15.125 0l0 2.953125l-11.921875 0l0 8.140625l10.65625 0l0 2.90625l-10.65625 0l0 9.328125l11.921875 0l0 2.953125l-15.125 0zm21.318787 0l0 -26.28125l8.140625 0q2.328125 0 4.09375 0.953125q1.765625 0.953125 2.734375 2.65625q0.984375 1.6875 0.984375 3.953125q0 2.65625 -1.390625 4.578125q-1.390625 1.90625 -3.765625 2.625l5.515625 11.515625l-3.828125 0l-5.03125 -11.15625l-4.21875 0l0 11.15625l-3.234375 0zm3.234375 -14.078125l4.90625 0q2.015625 0 3.234375 -1.265625q1.21875 -1.28125 1.21875 -3.375q0 -2.125 -1.21875 -3.375q-1.21875 -1.265625 -3.234375 -1.265625l-4.90625 0l0 9.28125zm45.840637 14.078125l0 -23.359375l-7.203125 0l0 -2.953125l17.640625 0l0 2.953125l-7.203125 0l0 23.359375l-3.234375 0zm23.20935 0.359375q-2.375 0 -4.09375 -0.890625q-1.703125 -0.90625 -2.625 -2.609375q-0.90625 -1.71875 -0.90625 -4.0625l0 -11.875q0 -2.375 0.90625 -4.0625q0.921875 -1.703125 2.625 -2.59375q1.71875 -0.90625 4.09375 -0.90625q2.375 0 4.078125 0.90625q1.71875 0.890625 2.640625 2.59375q0.921875 1.6875 0.921875 4.03125l0 11.90625q0 2.34375 -0.921875 4.0625q-0.921875 1.703125 -2.640625 2.609375q-1.703125 0.890625 -4.078125 0.890625zm0 -2.921875q2.125 0 3.25 -1.203125q1.140625 -1.203125 1.140625 -3.4375l0 -11.875q0 -2.234375 -1.140625 -3.4375q-1.125 -1.203125 -3.25 -1.203125q-2.078125 0 -3.234375 1.203125q-1.15625 1.203125 -1.15625 3.4375l0 11.875q0 2.234375 1.15625 3.4375q1.15625 1.203125 3.234375 1.203125zm35.746887 2.5625l0 -26.28125l3.25 0l0 11.234375l8.421875 0l0 -11.234375l3.234375 0l0 26.28125l-3.234375 0l0 -12.09375l-8.421875 0l0 12.09375l-3.25 0zm20.053162 0l6.84375 -26.28125l4.359375 0l6.796875 26.28125l-3.265625 0l-1.734375 -6.984375l-7.953125 0l-1.734375 6.984375l-3.3125 0zm5.6875 -9.71875l6.625 0l-2.015625 -8.09375q-0.578125 -2.3125 -0.90625 -3.859375q-0.3125 -1.546875 -0.390625 -2.015625q-0.0625 0.46875 -0.390625 2.015625q-0.328125 1.546875 -0.90625 3.8125l-2.015625 8.140625zm22.6781 9.71875l-6.765625 -26.28125l3.34375 0l4.46875 17.859375q0.46875 1.875 0.796875 3.484375q0.328125 1.59375 0.46875 2.421875q0.140625 -0.828125 0.4375 -2.421875q0.3125 -1.609375 0.78125 -3.484375l4.4375 -17.859375l3.265625 0l-6.796875 26.28125l-4.4375 0zm16.631287 0l0 -26.28125l15.125 0l0 2.953125l-11.921875 0l0 8.140625l10.65625 0l0 2.90625l-10.65625 0l0 9.328125l11.921875 0l0 2.953125l-15.125 0zm43.028137 0l0 -26.3125l15.484375 0l0 2.953125l-12.3125 0l0 8.75l11.375 0l0 2.953125l-11.3125 0l0 11.65625l-3.234375 0zm28.974976 0.359375q-3.671875 0 -5.625 -2.03125q-1.9375 -2.03125 -1.9375 -5.53125l0 -19.078125l3.25 0l0 19.078125q0 2.15625 1.0625 3.421875q1.0625 1.265625 3.25 1.265625q2.15625 0 3.234375 -1.265625q1.09375 -1.265625 1.09375 -3.421875l0 -19.078125l3.234375 0l0 19.078125q0 3.53125 -1.921875 5.546875q-1.921875 2.015625 -5.640625 2.015625zm14.037537 -0.359375l0 -26.28125l4.328125 0l8.03125 22.5q-0.078125 -0.90625 -0.171875 -2.21875q-0.078125 -1.3125 -0.140625 -2.765625q-0.046875 -1.453125 -0.046875 -2.75l0 -14.765625l3.125 0l0 26.28125l-4.3125 0l-8.0 -22.5q0.078125 0.859375 0.140625 2.171875q0.078125 1.3125 0.125 2.78125q0.0625 1.453125 0.0625 2.78125l0 14.765625l-3.140625 0z" fill-rule="nonzero"/><path fill="#000000" fill-opacity="0.0" d="m165.09973 175.54724l800.28345 0l0 229.48032l-800.28345 0z" fill-rule="evenodd"/><path fill="#eb0075" d="m230.55139 350.94724l29.84375 -140.39062l31.015625 0l-12.1875 57.359375l35.765625 -57.359375l30.328125 0l-39.484375 63.4375l10.859375 76.953125l-31.546875 0l-7.09375 -62.046875l-4.46875 5.546875l-12.015625 56.5l-31.015625 0zm91.511444 0l56.359375 -140.39062l35.359375 0l-3.671875 140.39062l-28.59375 0l1.609375 -29.640625l-20.625 0l-11.140625 29.640625l-29.296875 0zm47.171875 -48.1875l14.90625 0l4.1875 -54.765625l-19.09375 54.765625zm55.097565 48.1875l29.84375 -140.39062l38.640625 0q14.21875 0 23.953125 3.125q9.734375 3.109375 13.828125 11.171875q4.09375 8.0625 0.953125 22.796875q-1.84375 8.65625 -4.65625 15.421875q-2.8125 6.75 -7.59375 11.703125q-4.78125 4.9375 -12.421875 8.234375l4.796875 67.9375l-32.0625 0l-2.046875 -62.921875l-8.84375 0l-13.375 62.921875l-31.015625 0zm48.1875 -80.765625l8.671875 0q6.578125 0 10.703125 -2.34375q4.140625 -2.34375 6.5625 -6.765625q2.421875 -4.421875 3.75 -10.65625q1.90625 -9.015625 -0.328125 -14.03125q-2.21875 -5.03125 -11.046875 -5.03125l-10.0625 0l-8.25 38.828125zm94.188354 82.84375q-15.765625 0 -23.78125 -5.546875q-8.0 -5.546875 -9.78125 -15.9375q-1.765625 -10.40625 1.28125 -24.796875l11.09375 -52.171875q3.09375 -14.5625 9.25 -24.78125q6.15625 -10.21875 16.5 -15.671875q10.359375 -5.46875 26.125 -5.46875q15.953125 0 24.0625 5.46875q8.109375 5.453125 9.921875 15.671875q1.8125 10.21875 -1.28125 24.78125l-11.09375 52.171875q-3.046875 14.390625 -9.25 24.796875q-6.1875 10.390625 -16.640625 15.9375q-10.453125 5.546875 -26.40625 5.546875zm4.671875 -22.015625q4.859375 0 7.625 -2.421875q2.765625 -2.421875 4.265625 -6.234375q1.515625 -3.8125 2.359375 -7.8125l14.375 -67.59375q0.875 -4.15625 0.96875 -7.875q0.109375 -3.734375 -1.625 -6.15625q-1.734375 -2.4375 -6.59375 -2.4375q-4.5 0 -7.28125 2.4375q-2.765625 2.421875 -4.25 6.15625q-1.484375 3.71875 -2.359375 7.875l-14.375 67.59375q-0.84375 4.0 -1.0625 7.8125q-0.203125 3.8125 1.453125 6.234375q1.65625 2.421875 6.5 2.421875zm57.132812 19.9375l29.84375 -140.39062l21.828125 0l14.40625 67.59375l14.375 -67.59375l25.65625 0l-29.84375 140.39062l-20.984375 0l-13.296875 -72.796875l-15.46875 72.796875l-26.515625 0zm97.23706 0l29.84375 -140.39062l35.53125 0q18.375 0 27.609375 4.59375q9.25 4.59375 11.328125 14.390625q2.078125 9.78125 -1.234375 25.375l-10.828125 50.96875q-3.34375 15.765625 -9.640625 25.734375q-6.28125 9.96875 -17.40625 14.65625q-11.125 4.671875 -29.328125 4.671875l-35.875 0zm35.578125 -21.5l4.859375 0q7.109375 0 10.671875 -2.078125q3.5625 -2.078125 5.21875 -6.234375q1.671875 -4.15625 3.0 -10.40625l13.0 -61.171875q1.328125 -6.25 1.1875 -10.0625q-0.140625 -3.8125 -2.90625 -5.546875q-2.75 -1.734375 -9.671875 -1.734375l-4.6875 0l-20.671875 97.234375zm57.146606 21.5l56.359375 -140.39062l35.359375 0l-3.671875 140.39062l-28.59375 0l1.609375 -29.640625l-20.625 0l-11.140625 29.640625l-29.296875 0zm47.171875 -48.1875l14.90625 0l4.1875 -54.765625l-19.09375 54.765625z" fill-rule="nonzero"/></g></svg>